<svg xmlns="http://www.w3.org/2000/svg" xmlns:xlink="http://www.w3.org/1999/xlink" width="500" zoomAndPan="magnify" viewBox="0 0 375 374.999991" height="500" preserveAspectRatio="xMidYMid meet" version="1.0"><defs><clipPath id="id1"><path d="M 0 26.375 L 375 26.375 L 375 348.875 L 0 348.875 Z M 0 26.375 " clip-rule="nonzero"/></clipPath></defs><g clip-path="url(#id1)"><path fill="#e4e4e4" d="M 17.503906 27.15625 C 13.257812 28.183594 7.480469 31.917969 4.996094 35.289062 C 0.015625 42.023438 0.382812 31.992188 0.527344 179.183594 L 0.746094 312.460938 L 2.5 316.046875 C 4.839844 320.808594 8.5 324.324219 13.472656 326.589844 C 16.910156 328.199219 18.960938 328.566406 25.839844 328.789062 L 34.035156 329.15625 L 34.035156 336.625 C 34.035156 343.507812 34.179688 344.242188 35.789062 346 C 36.738281 347.023438 38.640625 348.046875 39.960938 348.34375 C 41.351562 348.5625 57.011719 348.710938 74.863281 348.5625 L 107.347656 348.34375 L 109.46875 345.925781 C 111.519531 343.65625 111.589844 343.292969 111.589844 336.257812 L 111.589844 328.933594 L 263.785156 328.933594 L 263.785156 336.257812 C 263.785156 343.289062 263.855469 343.65625 265.90625 345.925781 L 268.023438 348.34375 L 300.511719 348.5625 C 318.363281 348.707031 334.023438 348.5625 335.414062 348.34375 C 336.730469 348.046875 338.632812 347.023438 339.582031 346 C 341.191406 344.238281 341.339844 343.507812 341.339844 336.625 L 341.339844 329.15625 L 349.609375 328.789062 C 356.414062 328.570312 358.460938 328.203125 361.902344 326.589844 C 366.875 324.320312 370.535156 320.804688 372.875 316.046875 L 374.632812 312.460938 L 374.851562 179.917969 C 374.996094 85.085938 374.851562 46.269531 374.265625 43.5625 C 372.65625 36.023438 366.875 30.015625 358.902344 27.675781 C 355.316406 26.648438 339.21875 26.503906 187.390625 26.578125 C 95.210938 26.644531 18.746094 26.863281 17.503906 27.15625 Z M 322.261719 57.910156 C 333.53125 61.425781 342.382812 70.726562 345.457031 82.371094 C 346.917969 88.011719 346.992188 267.347656 345.457031 273.0625 C 342.238281 285.144531 331.84375 295.398438 320.0625 298.105469 C 317.945312 298.617188 272.136719 298.910156 187.699219 298.910156 C 45.089844 298.910156 54.015625 299.207031 45.820312 294.300781 C 38.210938 289.683594 31.625 280.824219 29.71875 272.476562 C 29.207031 270.425781 28.914062 236.8125 28.914062 177.71875 C 28.914062 103.242188 29.132812 85.523438 29.9375 82.519531 C 33.085938 70.875 41.792969 61.503906 52.914062 57.914062 C 56.863281 56.671875 63.085938 56.597656 187.476562 56.597656 C 313.40625 56.523438 317.945312 56.597656 322.261719 57.910156 Z M 322.261719 57.910156 " fill-opacity="1" fill-rule="nonzero"/></g><path fill="#e4e4e4" d="M 54.675781 73.070312 C 52.554688 74.09375 49.699219 76.292969 48.308594 77.902344 C 43.261719 83.90625 43.480469 77.757812 43.703125 179.253906 L 43.917969 270.867188 L 46.117188 274.378906 C 48.75 278.628906 53.507812 282.433594 57.386719 283.535156 C 59.359375 284.046875 101.800781 284.191406 189.238281 284.121094 L 318.3125 283.902344 L 321.75 281.925781 C 323.578125 280.753906 326.140625 278.628906 327.386719 277.164062 C 332.066406 271.449219 331.847656 276.945312 331.847656 177.71875 C 331.847656 77.757812 332.144531 83.839844 327.019531 77.90625 C 325.628906 76.296875 322.847656 74.097656 320.726562 73.074219 L 316.917969 71.171875 L 58.476562 71.171875 Z M 245.871094 109.246094 C 270.382812 115.835938 289.480469 134.875 296.140625 159.40625 C 298.484375 168.125 298.484375 185.476562 296.140625 194.121094 C 292.628906 207.078125 286.335938 217.699219 276.824219 226.855469 C 263.070312 240.035156 247.554688 246.335938 228.679688 246.40625 C 219.898438 246.40625 214.703125 245.671875 206.726562 243.109375 C 183.382812 235.640625 165.3125 215.355469 160.261719 190.898438 C 158.800781 183.648438 158.726562 169.882812 160.191406 163.070312 C 166.191406 134.878906 187.996094 113.496094 216.164062 108.148438 C 223.992188 106.683594 238.1875 107.195312 245.871094 109.246094 Z M 102.527344 126.894531 C 106.625 130.703125 106.476562 128.578125 106.476562 181.523438 C 106.476562 229.050781 106.40625 230.515625 105.015625 232.859375 C 100.480469 240.253906 89.429688 239.8125 85.917969 231.976562 C 84.675781 229.121094 84.527344 226.191406 84.527344 181.378906 C 84.527344 135.972656 84.597656 133.632812 85.988281 130.703125 C 87.964844 126.238281 91.109375 124.476562 96.378906 124.84375 C 99.601562 124.992188 101.0625 125.503906 102.527344 126.894531 Z M 102.527344 126.894531 " fill-opacity="1" fill-rule="nonzero"/><path fill="#e4e4e4" d="M 217.917969 115.472656 C 208.335938 117.230469 201.164062 120.15625 193.550781 125.429688 C 185.796875 130.847656 186.089844 129.898438 190.847656 134.730469 C 195.675781 139.566406 196.40625 142.566406 193.117188 143.375 C 191.507812 143.8125 190.558594 143.226562 186.894531 139.566406 L 182.503906 135.242188 L 180.089844 137.878906 C 173.433594 145.054688 166.480469 162.265625 166.480469 171.566406 L 166.480469 173.6875 L 172.625 173.6875 C 179.355469 173.6875 180.894531 174.492188 180.085938 177.640625 C 179.574219 179.765625 177.894531 180.277344 171.453125 180.277344 L 166.476562 180.277344 L 166.476562 182.621094 C 166.476562 189.871094 171.601562 203.855469 177.304688 212.277344 C 182.0625 219.304688 181.988281 219.234375 186.816406 214.476562 C 191.207031 210.152344 193.695312 209.273438 194.863281 211.546875 C 195.886719 213.449219 194.863281 215.355469 190.691406 219.382812 C 186.445312 223.558594 186.445312 223.558594 192.8125 227.875 C 201.738281 233.953125 211.6875 237.761719 220.691406 238.566406 L 225.664062 239.078125 L 225.882812 232.636719 C 226.027344 227.433594 226.320312 226.046875 227.347656 225.386719 C 228.296875 224.800781 229.027344 224.800781 229.90625 225.386719 C 231.003906 226.042969 231.296875 227.433594 231.441406 232.5625 L 231.660156 238.863281 L 234.371094 238.863281 C 242.636719 238.863281 257.125 233.222656 265.832031 226.703125 L 270.441406 223.261719 L 266.050781 218.796875 C 261.515625 214.257812 260.851562 212.792969 262.464844 211.183594 C 264.21875 209.421875 266.417969 210.304688 270.367188 214.328125 C 272.5625 216.527344 274.539062 218.355469 274.757812 218.355469 C 275.925781 218.355469 281.859375 209.351562 284.636719 203.34375 C 287.707031 196.898438 289.539062 190.820312 290.488281 183.71875 L 290.929688 180.277344 L 285.367188 180.277344 C 279.003906 180.277344 276.953125 179.46875 276.953125 177.128906 C 276.953125 174.273438 278.347656 173.6875 284.855469 173.6875 L 291.003906 173.6875 L 290.492188 169.804688 C 289.246094 160.066406 285.664062 150.398438 280.25 142.199219 C 275.273438 134.65625 275.417969 134.730469 270.445312 139.566406 C 266.125 143.664062 264.152344 144.472656 262.46875 142.789062 C 260.859375 141.179688 261.519531 139.714844 266.054688 135.171875 L 270.515625 130.632812 L 266.34375 127.335938 C 258.296875 121.035156 246.367188 116.203125 235.464844 114.8125 L 231.585938 114.296875 L 231.585938 126.089844 L 234.882812 126.089844 C 240.367188 126.089844 241.101562 127.40625 241.101562 137.21875 L 241.101562 145.496094 L 245.054688 147.546875 C 256.539062 153.550781 263.855469 168.417969 261.808594 181.671875 C 259.832031 194.558594 251.273438 204.667969 238.90625 208.839844 C 232.613281 210.960938 222.292969 210.671875 216 208.179688 C 208.097656 205.035156 200.34375 197.269531 197.046875 189.066406 C 195.65625 185.699219 195.367188 183.578125 195.367188 176.542969 C 195.367188 168.269531 195.441406 168.050781 198.074219 162.632812 C 201.289062 156.1875 206.339844 150.695312 212.195312 147.328125 L 216.21875 145.054688 L 216.21875 136.78125 C 216.21875 127.039062 216.730469 126.089844 222.363281 126.089844 L 225.800781 126.089844 L 225.585938 120.449219 C 225.382812 113.863281 225.601562 114.082031 217.917969 115.472656 Z M 217.917969 115.472656 " fill-opacity="1" fill-rule="nonzero"/><path fill="#e4e4e4" d="M 222.820312 156.042969 C 212.945312 159.265625 207.164062 167.027344 207.164062 176.988281 C 207.164062 188.703125 215.433594 197.566406 227.210938 198.371094 C 243.75 199.542969 255.164062 182.261719 247.628906 167.25 C 245.429688 162.710938 242.285156 159.710938 237.457031 157.21875 C 234.601562 155.75 225.820312 155.019531 222.820312 156.042969 Z M 222.820312 156.042969 " fill-opacity="1" fill-rule="nonzero"/></svg>